REM MD5 ec281b36e60ed91eb983169053fd7321
FILE "Colin McRae Rally (Italy).bin" BINARY
  TRACK 01 MODE2/2352
    INDEX 01 00:00:00
  TRACK 02 AUDIO
    INDEX 00 20:07:46
    INDEX 01 20:09:46
  TRACK 03 AUDIO
    INDEX 00 25:23:46
    INDEX 01 25:25:46
  TRACK 04 AUDIO
    INDEX 00 28:22:71
    INDEX 01 28:24:71
REM LEADOUT 33:38:69
